<?xml version="1.0" encoding="UTF-8"?>
<svg version="1.1" xmlns="http://www.w3.org/2000/svg" width="129" height="100">
<path d="M0 0 C4.98965812 1.04621864 7.57123784 3.35921272 11.37109375 6.66015625 C13.62455346 8.59721756 15.9105834 10.22460123 18.375 11.875 C22.20557828 14.66018142 22.65277755 17.2728166 23.875 21.8125 C26.66601437 23.0211563 26.66601437 23.0211563 29.875 23.8125 C32.70046674 25.73094624 35.32422976 27.71095953 36.875 30.8125 C36.94450541 32.35273996 36.95952357 33.89584988 36.9375 35.4375 C36.92847656 36.25476562 36.91945313 37.07203125 36.91015625 37.9140625 C36.89855469 38.54054687 36.88695313 39.16703125 36.875 39.8125 C37.431875 39.131875 37.98875 38.45125 38.5625 37.75 C40.875 35.8125 40.875 35.8125 43.4375 36 C45.25 36.60416667 47.0625 37.20833333 48.875 37.8125 C50.94796851 36.59192932 50.94796851 36.59192932 53.0625 34.875 C56.14103201 32.72905261 58.40140758 31.3235217 62.1875 31.125 C66.77114435 31.97957776 67.25448596 33.08429313 69.875 36.8125 C71.11868254 38.83282818 72.32683814 40.87542254 73.5 42.9375 C75.22701543 45.96166239 76.94279104 48.91418656 78.875 51.8125 C79.078125 53.79296875 79.078125 53.79296875 79.125 56 C79.44935234 59.93038721 80.40251578 61.87101401 82.9375 64.875 C85.62934392 68.17594729 86.97973953 70.53625161 86.5546875 74.86328125 C85.00522946 79.30684194 81.91113095 81.61505093 77.875 83.8125 C72.68185836 85.64012925 67.24573542 86.65171023 61.875 87.8125 C55.97478927 89.37296262 51.85526713 92.15706882 47.34375 96.19140625 C40.78497487 100.49819688 33.00813398 100.16724347 25.4375 100.125 C24.38361084 100.11936035 23.32972168 100.1137207 22.24389648 100.10791016 C-3.83614516 99.70756299 -3.83614516 99.70756299 -13.125 90.8125 C-13.785 89.8225 -14.445 88.8325 -15.125 87.8125 C-16.0840625 88.2765625 -16.0840625 88.2765625 -17.0625 88.75 C-23.82304343 91.09549466 -29.51053654 91.37220829 -36.23828125 88.75390625 C-38.83540988 87.45803047 -39.99856101 86.51595358 -41.125 83.8125 C-41.92378632 77.87865873 -40.4937573 73.61096862 -37.125 68.8125 C-35.65708349 67.3014887 -34.1543875 65.82376081 -32.625 64.375 C-26.27453727 58.27521343 -23.90460564 52.42434793 -23.33984375 43.71875 C-23.06642816 40.02018273 -22.56763393 36.35986687 -22.0625 32.6875 C-21.88589844 31.38554687 -21.70929687 30.08359375 -21.52734375 28.7421875 C-21.39457031 27.77539062 -21.26179688 26.80859375 -21.125 25.8125 C-20.465 25.8125 -19.805 25.8125 -19.125 25.8125 C-19.14820312 25.19761719 -19.17140625 24.58273438 -19.1953125 23.94921875 C-19.22238281 22.73685547 -19.22238281 22.73685547 -19.25 21.5 C-19.27320312 20.69949219 -19.29640625 19.89898438 -19.3203125 19.07421875 C-19.125 16.8125 -19.125 16.8125 -17.125 13.8125 C-15.4234375 13.68875 -15.4234375 13.68875 -13.6875 13.5625 C-12.511875 13.315 -11.33625 13.0675 -10.125 12.8125 C-8.33398257 9.55088806 -8.33398257 9.55088806 -7.125 5.8125 C-4.99673493 2.24005507 -4.05077706 1.05320204 0 0 Z M22.4375 54.1328125 C19.20247045 57.86927163 17.07248937 60.90279358 15.875 65.8125 C19.40531218 63.2779169 20.92962323 61.99916856 21.875 57.8125 C23.18415279 56.78104629 24.51582143 55.77707834 25.875 54.8125 C25.875 54.1525 25.875 53.4925 25.875 52.8125 C23.79519178 52.5870169 23.79519178 52.5870169 22.4375 54.1328125 Z " fill="#E97F27" transform="translate(41.125,0.1875)"/>
<path d="M0 0 C3.12791716 3.37180933 5.35788233 7.14006629 7.625 11.125 C9.35201543 14.14916239 11.06779104 17.10168656 13 20 C13.203125 21.98046875 13.203125 21.98046875 13.25 24.1875 C13.57435234 28.11788721 14.52751578 30.05851401 17.0625 33.0625 C19.41846738 35.88852818 20.45547157 37.66245122 20.5625 41.375 C20.2840625 43.169375 20.2840625 43.169375 20 45 C19.01 45.66 18.02 46.32 17 47 C16.34 46.34 15.68 45.68 15 45 C14.34 45.99 13.68 46.98 13 48 C12.80664062 47.38511719 12.61328125 46.77023438 12.4140625 46.13671875 C12.02347656 44.92435547 12.02347656 44.92435547 11.625 43.6875 C11.36976562 42.88699219 11.11453125 42.08648437 10.8515625 41.26171875 C10.01168189 38.77275472 10.01168189 38.77275472 8 36 C7.29037109 36.58007812 7.29037109 36.58007812 6.56640625 37.171875 C0.63767413 41.840896 -5.38342473 44.59355406 -12.375 47.3125 C-15.62668691 48.82621632 -18.28969233 50.49990544 -21.25 52.5 C-33.66506178 60.45707889 -47.82531457 60.30060339 -62 58 C-62 57.67 -62 57.34 -62 57 C-59.03 56.505 -59.03 56.505 -56 56 C-56 55.67 -56 55.34 -56 55 C-55.27820557 54.97494385 -54.55641113 54.9498877 -53.81274414 54.92407227 C-50.562465 54.80848698 -47.31250312 54.68559226 -44.0625 54.5625 C-42.92619141 54.52318359 -41.78988281 54.48386719 -40.61914062 54.44335938 C-39.53955078 54.40146484 -38.45996094 54.35957031 -37.34765625 54.31640625 C-35.84730835 54.26141968 -35.84730835 54.26141968 -34.31665039 54.20532227 C-32.03930812 54.25328159 -32.03930812 54.25328159 -31 53 C-29.00819591 51.98377342 -27.00847365 50.98287008 -25 50 C-27.49092811 48.75453595 -28.41080733 49.2232422 -31 50 C-28.25 46.125 -28.25 46.125 -26 45 C-25.67 44.01 -25.34 43.02 -25 42 C-24.01 43.98 -23.02 45.96 -22 48 C-19.0280615 46.87548273 -16.66559313 45.77706209 -14 44 C-13.01 44 -12.02 44 -11 44 C-10.505 43.01 -10.505 43.01 -10 42 C-9.67 42 -9.34 42 -9 42 C-9.495 38.535 -9.495 38.535 -10 35 C-9.01 35 -8.02 35 -7 35 C-7 36.32 -7 37.64 -7 39 C-6.34 38.01 -5.68 37.02 -5 36 C-4.34 36 -3.68 36 -3 36 C-2.67 34.68 -2.34 33.36 -2 32 C-1.34 32 -0.68 32 0 32 C-1.34800766 26.43946842 -5.44937984 23.12644459 -10 20 C-13.29889553 18.96975233 -13.29889553 18.96975233 -16 19 C-16.33 20.32 -16.66 21.64 -17 23 C-18.32 22.34 -19.64 21.68 -21 21 C-20.855625 21.5775 -20.71125 22.155 -20.5625 22.75 C-19.78125 25.875 -19.78125 25.875 -19 29 C-20.98 28.67 -22.96 28.34 -25 28 C-25 30.31 -25 32.62 -25 35 C-26.65 34.34 -28.3 33.68 -30 33 C-30.33 33.99 -30.66 34.98 -31 36 C-31.680625 35.0409375 -31.680625 35.0409375 -32.375 34.0625 C-36.25013836 31.01774843 -40.1922647 31.18350135 -45 31 C-45.15234375 28.63671875 -45.15234375 28.63671875 -45 26 C-42.5625 23.8125 -42.5625 23.8125 -40 22 C-39.67 21.34 -39.34 20.68 -39 20 C-37.15234375 19.1484375 -37.15234375 19.1484375 -34.9375 18.375 C-34.20402344 18.11460938 -33.47054687 17.85421875 -32.71484375 17.5859375 C-32.14894531 17.39257812 -31.58304688 17.19921875 -31 17 C-31 17.66 -31 18.32 -31 19 C-30.071875 19.4640625 -30.071875 19.4640625 -29.125 19.9375 C-27.75 20.625 -26.375 21.3125 -25 22 C-28.2436349 17.2920022 -28.2436349 17.2920022 -33.3125 15.125 C-34.199375 15.08375 -35.08625 15.0425 -36 15 C-35.01 14.01 -34.02 13.02 -33 12 C-33 12.66 -33 13.32 -33 14 C-32.34 14 -31.68 14 -31 14 C-30.7525 13.0925 -30.505 12.185 -30.25 11.25 C-28.93289486 7.82552663 -27.9776393 6.12688522 -25 4 C-22.07382369 4.21411046 -19.78566461 5.07144513 -17 6 C-14.92703149 4.77942932 -14.92703149 4.77942932 -12.8125 3.0625 C-8.17294433 -0.17158766 -5.59638027 -1.04339293 0 0 Z " fill="#E77C23" transform="translate(107,32)"/>
<path d="M0 0 C2.475 1.98 2.475 1.98 5 4 C5.33 3.01 5.66 2.02 6 1 C9.75187628 0.63195357 11.53697252 0.69681938 14.73828125 2.79296875 C15.58777344 3.58316406 16.43726562 4.37335937 17.3125 5.1875 C18.17488281 5.96480469 19.03726563 6.74210937 19.92578125 7.54296875 C22.12272011 10.14536901 22.68514979 11.65545911 23 15 C22.01 15 21.02 15 20 15 C19.62875 16.175625 19.62875 16.175625 19.25 17.375 C17.84610901 20.32317108 16.99324263 20.9024777 14 22 C13.505 20.515 13.505 20.515 13 19 C13.495 21.97 13.495 21.97 14 25 C13.13375 25.2475 12.2675 25.495 11.375 25.75 C7.890367 26.88436596 7.890367 26.88436596 4.8125 29.1875 C3.4203125 30.0846875 3.4203125 30.0846875 2 31 C-1 30 -1 30 -2.1875 27.9375 C-2.455625 27.298125 -2.72375 26.65875 -3 26 C-3.495 27.485 -3.495 27.485 -4 29 C-4.495 29.495 -4.495 29.495 -5 30 C-4.01 30.66 -3.02 31.32 -2 32 C-2.78375 32.61875 -3.5675 33.2375 -4.375 33.875 C-6.96837647 35.89858661 -6.96837647 35.89858661 -9 38 C-10.67192369 37.69412409 -12.33775074 37.35470591 -14 37 C-16.27401002 37.0826428 -18.54633382 37.23148489 -20.8125 37.4375 C-22.55466797 37.59025391 -22.55466797 37.59025391 -24.33203125 37.74609375 C-25.21246094 37.82988281 -26.09289062 37.91367188 -27 38 C-27 38.33 -27 38.66 -27 39 C-33.76594019 39.11381955 -40.28837062 38.88021369 -47 38 C-47.45375 36.865625 -47.9075 35.73125 -48.375 34.5625 C-49.57095806 30.95278308 -49.57095806 30.95278308 -52 30 C-51 27 -51 27 -48.25 25.5625 C-43.57190874 23.71075554 -38.71931358 22.36291754 -33.890625 20.96484375 C-29.04277452 19.34670988 -27.50257464 17.24349613 -25 13 C-22.4560922 11.7280461 -20.94541318 11.99892464 -18.125 12.25 C-17.26132813 12.31703125 -16.39765625 12.3840625 -15.5078125 12.453125 C-12.67567068 13.07072602 -11.17242467 14.12060005 -9 16 C-8.67 15.34 -8.34 14.68 -8 14 C-5.525 15.485 -5.525 15.485 -3 17 C-3.495 13.04 -3.495 13.04 -4 9 C-1.69 9.66 0.62 10.32 3 11 C2.65213292 9.02463255 2.65213292 9.02463255 2 7 C1.34 6.67 0.68 6.34 0 6 C0 4.02 0 2.04 0 0 Z " fill="#EF7F23" transform="translate(85,50)"/>
<path d="M0 0 C4.98739598 1.04574432 7.56760789 3.35986057 11.37109375 6.65234375 C13.62875986 8.60006506 15.92970233 10.30027404 18.375 12 C21.48291437 14.34973364 23.1524641 15.83855254 23.875 19.8125 C24.97078762 31.55603523 21.45428255 38.45640069 14.28125 47.55078125 C11.71406596 50.90478251 9.70087647 54.48282847 7.6875 58.1875 C4.9654781 63.17213936 2.22294626 67.11674568 -2.125 70.8125 C-2.785 70.4825 -3.445 70.1525 -4.125 69.8125 C-2.84437515 68.1050002 -1.50732443 66.43876404 -0.125 64.8125 C0.535 64.8125 1.195 64.8125 1.875 64.8125 C1.875 63.8225 1.875 62.8325 1.875 61.8125 C-0.6 62.3075 -0.6 62.3075 -3.125 62.8125 C-3.125 59.8125 -3.125 59.8125 -1.125 57.8125 C-1.455 57.1525 -1.785 56.4925 -2.125 55.8125 C-1.84557545 54.13595271 -1.51671753 52.46641846 -1.125 50.8125 C1.34300047 51.96423355 2.92283565 52.86033565 4.875 54.8125 C5.08125 54.255625 5.2875 53.69875 5.5 53.125 C7.42500774 49.88748698 9.91350902 48.13018859 12.875 45.8125 C12.215 44.925625 11.555 44.03875 10.875 43.125 C8.88639933 39.83138014 8.43764926 38.52998127 8.875 34.8125 C9.535 34.8125 10.195 34.8125 10.875 34.8125 C10.875 35.4725 10.875 36.1325 10.875 36.8125 C11.865 36.8125 12.855 36.8125 13.875 36.8125 C14.205 35.1625 14.535 33.5125 14.875 31.8125 C15.865 31.8125 16.855 31.8125 17.875 31.8125 C16.885 31.19375 15.895 30.575 14.875 29.9375 C13.39 28.885625 13.39 28.885625 11.875 27.8125 C11.875 27.1525 11.875 26.4925 11.875 25.8125 C6.925 25.4825 1.975 25.1525 -3.125 24.8125 C-2.795 26.1325 -2.465 27.4525 -2.125 28.8125 C-4.29374252 28.30646008 -6.12467627 27.81266187 -8.125 26.8125 C-6.32087357 30.07710973 -5.29105307 31.70179795 -2.125 33.8125 C-2.125 34.8025 -2.125 35.7925 -2.125 36.8125 C-4.105 37.3075 -4.105 37.3075 -6.125 37.8125 C-6.125 38.8025 -6.125 39.7925 -6.125 40.8125 C-4.64 41.3075 -4.64 41.3075 -3.125 41.8125 C-3.125 42.4725 -3.125 43.1325 -3.125 43.8125 C-5.105 43.8125 -7.085 43.8125 -9.125 43.8125 C-8.795 44.4725 -8.465 45.1325 -8.125 45.8125 C-8.71667969 45.69390625 -9.30835938 45.5753125 -9.91796875 45.453125 C-15.30465216 44.51768746 -15.30465216 44.51768746 -20.1875 46.75 C-21.1465625 47.7709375 -21.1465625 47.7709375 -22.125 48.8125 C-23.7210654 40.99177953 -22.35018358 33.5888718 -21.125 25.8125 C-20.465 25.8125 -19.805 25.8125 -19.125 25.8125 C-19.14820313 25.19761719 -19.17140625 24.58273438 -19.1953125 23.94921875 C-19.21335937 23.14097656 -19.23140625 22.33273438 -19.25 21.5 C-19.27320313 20.69949219 -19.29640625 19.89898438 -19.3203125 19.07421875 C-19.125 16.8125 -19.125 16.8125 -17.125 13.8125 C-15.4234375 13.68875 -15.4234375 13.68875 -13.6875 13.5625 C-12.511875 13.315 -11.33625 13.0675 -10.125 12.8125 C-8.33398257 9.55088806 -8.33398257 9.55088806 -7.125 5.8125 C-4.99673493 2.24005507 -4.05077706 1.05320204 0 0 Z " fill="#EB7D22" transform="translate(41.125,0.1875)"/>
<path d="M0 0 C2.55589824 2.22252021 3.28545662 3.73351596 4 7 C4.99 8.485 4.99 8.485 6 10 C6.66 9.34 7.32 8.68 8 8 C8.495 10.475 8.495 10.475 9 13 C5.05466397 16.66954555 1.34638237 17.97118637 -3.8125 19.0625 C-5.24806012 19.39821365 -6.68296964 19.73672253 -8.1171875 20.078125 C-10.03917969 20.53445312 -10.03917969 20.53445312 -12 21 C-17.89853784 22.58029363 -22.01377718 25.33924305 -26.53125 29.37890625 C-33.09002513 33.68569688 -40.86686602 33.35474347 -48.4375 33.3125 C-49.49138916 33.30686035 -50.54527832 33.3012207 -51.63110352 33.29541016 C-77.71114516 32.89506299 -77.71114516 32.89506299 -87 24 C-87.66 23.01 -88.32 22.02 -89 21 C-89.639375 21.309375 -90.27875 21.61875 -90.9375 21.9375 C-98.67562523 24.62215569 -104.48079912 24.14633228 -112 21 C-111.505 19.515 -111.505 19.515 -111 18 C-109.35 18 -107.7 18 -106 18 C-106 17.01 -106 16.02 -106 15 C-105.67 14.34 -105.34 13.68 -105 13 C-103.35 13.33 -101.7 13.66 -100 14 C-100.99 15.485 -100.99 15.485 -102 17 C-98.57905758 19.28062828 -97.31812778 19.21925007 -93.3125 19.125 C-92.31863281 19.10695313 -91.32476562 19.08890625 -90.30078125 19.0703125 C-89.54152344 19.04710938 -88.78226563 19.02390625 -88 19 C-87.67 17.35 -87.34 15.7 -87 14 C-85.768606 16.46278801 -85.92840804 18.2795055 -86 21 C-83.69 21.66 -81.38 22.32 -79 23 C-79.66 22.34 -80.32 21.68 -81 21 C-80.34 21 -79.68 21 -79 21 C-80.30155006 16.92035719 -80.30155006 16.92035719 -82 13 C-80.0625 13.6875 -80.0625 13.6875 -78 15 C-77.25 17.625 -77.25 17.625 -77 20 C-74.03 20.33 -71.06 20.66 -68 21 C-68 21.33 -68 21.66 -68 22 C-56.5899138 24.74109493 -43.64531606 23.90693186 -33 19 C-29.87932599 17.06984928 -26.89589755 15.01492289 -23.91015625 12.8828125 C-20.29562622 10.54428434 -16.69219433 9.32154838 -12.62109375 8.00390625 C-8.06873775 6.26030641 -3.47180911 3.47180911 0 0 Z " fill="#E27E2B" transform="translate(115,67)"/>
<path d="M0 0 C1 2 1 2 0.22265625 4.3828125 C-0.35162109 5.74019531 -0.35162109 5.74019531 -0.9375 7.125 C-1.31777344 8.03507813 -1.69804688 8.94515625 -2.08984375 9.8828125 C-2.39019531 10.58148438 -2.69054688 11.28015625 -3 12 C-2.34 12 -1.68 12 -1 12 C-0.896875 11.21625 -0.79375 10.4325 -0.6875 9.625 C0 7 0 7 3 5 C4.32 5 5.64 5 7 5 C8.47943663 7.95887327 8.05933104 10.73679297 8 14 C8 14.33 8 14.66 8 15 C8.66 15.33 9.32 15.66 10 16 C7.82896474 17.30749989 6.51979053 18.04372999 3.95703125 17.828125 C3.24933594 17.63734375 2.54164062 17.4465625 1.8125 17.25 C1.03648438 17.05148438 0.26046875 16.85296875 -0.5390625 16.6484375 C-1.35117187 16.43445313 -2.16328125 16.22046875 -3 16 C-4.68592744 15.61799227 -6.37338606 15.24266202 -8.0625 14.875 C-9.375 14.58333333 -10.6875 14.29166667 -12 14 C-12 16.64 -12 19.28 -12 22 C-11.52433594 21.67515625 -11.04867188 21.3503125 -10.55859375 21.015625 C-6.75186781 19.50455821 -3.11943676 19.710897 0.9375 19.75 C2.13536133 19.73839844 2.13536133 19.73839844 3.35742188 19.7265625 C7.68529055 19.74090506 11.05851129 19.99342393 15 22 C11.79984144 23.06671952 10.11455706 22.94845472 6.8125 22.5625 C5.91144531 22.46066406 5.01039062 22.35882812 4.08203125 22.25390625 C3.39496094 22.17011719 2.70789063 22.08632813 2 22 C2.33 23.32 2.66 24.64 3 26 C0.83125748 25.49396008 -0.99967627 25.00016187 -3 24 C-1.19587357 27.26460973 -0.16605307 28.88929795 3 31 C3 31.99 3 32.98 3 34 C1.02 34.495 1.02 34.495 -1 35 C-1 35.99 -1 36.98 -1 38 C0.485 38.495 0.485 38.495 2 39 C2 39.66 2 40.32 2 41 C0.02 41 -1.96 41 -4 41 C-3.67 41.66 -3.34 42.32 -3 43 C-3.59167969 42.88140625 -4.18335938 42.7628125 -4.79296875 42.640625 C-10.17965216 41.70518746 -10.17965216 41.70518746 -15.0625 43.9375 C-16.0215625 44.9584375 -16.0215625 44.9584375 -17 46 C-18.5960654 38.17927953 -17.22518358 30.7763718 -16 23 C-15.34 23 -14.68 23 -14 23 C-14.02320313 22.38511719 -14.04640625 21.77023438 -14.0703125 21.13671875 C-14.08835937 20.32847656 -14.10640625 19.52023438 -14.125 18.6875 C-14.14820313 17.88699219 -14.17140625 17.08648438 -14.1953125 16.26171875 C-14 14 -14 14 -12 11 C-10.2984375 10.87625 -10.2984375 10.87625 -8.5625 10.75 C-7.386875 10.5025 -6.21125 10.255 -5 10 C-3.08547087 6.67165685 -3.08547087 6.67165685 -2 3 C-1.34 2.01 -0.68 1.02 0 0 Z " fill="#A76835" transform="translate(36,3)"/>
<path d="M0 0 C1.65 1.32 3.3 2.64 5 4 C5.33 3.01 5.66 2.02 6 1 C9.75187628 0.63195357 11.53697252 0.69681938 14.73828125 2.79296875 C15.58777344 3.58316406 16.43726562 4.37335937 17.3125 5.1875 C18.17488281 5.96480469 19.03726563 6.74210937 19.92578125 7.54296875 C22.12272011 10.14536901 22.68514979 11.65545911 23 15 C22.01 15 21.02 15 20 15 C19.7525 15.78375 19.505 16.5675 19.25 17.375 C17.84610901 20.32317108 16.99324263 20.9024777 14 22 C13.67 21.01 13.34 20.02 13 19 C13.33 20.98 13.66 22.96 14 25 C13.13375 25.2475 12.2675 25.495 11.375 25.75 C7.890367 26.88436596 7.890367 26.88436596 4.8125 29.1875 C3.884375 29.785625 2.95625 30.38375 2 31 C1.01 30.67 0.02 30.34 -1 30 C-1.66666667 28 -2.33333333 26 -3 24 C-3.99 23.67 -4.98 23.34 -6 23 C-7.75 19.5625 -7.75 19.5625 -9 16 C-8.67 15.34 -8.34 14.68 -8 14 C-6.35 14.99 -4.7 15.98 -3 17 C-3.33 14.36 -3.66 11.72 -4 9 C-1.69 9.66 0.62 10.32 3 11 C2.65213292 9.02463255 2.65213292 9.02463255 2 7 C1.34 6.67 0.68 6.34 0 6 C0 4.02 0 2.04 0 0 Z " fill="#E37920" transform="translate(85,50)"/>
<path d="M0 0 C0.99 0.99 0.99 0.99 2 2 C2.66 1.67 3.32 1.34 4 1 C4 2.32 4 3.64 4 5 C5.97536745 4.65213292 5.97536745 4.65213292 8 4 C8.33 3.34 8.66 2.68 9 2 C9.2165625 2.928125 9.2165625 2.928125 9.4375 3.875 C9.93152225 6.03258322 9.93152225 6.03258322 11 8 C11.99 8.33 12.98 8.66 14 9 C15.4783226 11.95664519 15.06032783 14.74229737 15 18 C14.34 18.33 13.68 18.66 13 19 C12.01 18.01 12.01 18.01 11 17 C10.01 18.485 10.01 18.485 9 20 C8.80664062 19.38511719 8.61328125 18.77023438 8.4140625 18.13671875 C8.02347656 16.92435547 8.02347656 16.92435547 7.625 15.6875 C7.36976562 14.88699219 7.11453125 14.08648437 6.8515625 13.26171875 C6.01168189 10.77275472 6.01168189 10.77275472 4 8 C3.29037109 8.58007812 3.29037109 8.58007812 2.56640625 9.171875 C-3.36232587 13.840896 -9.38342473 16.59355406 -16.375 19.3125 C-19.62668691 20.82621632 -22.28969233 22.49990544 -25.25 24.5 C-37.66506178 32.45707889 -51.82531457 32.30060339 -66 30 C-66 29.67 -66 29.34 -66 29 C-64.02 28.67 -62.04 28.34 -60 28 C-60 27.67 -60 27.34 -60 27 C-59.27820557 26.97494385 -58.55641113 26.9498877 -57.81274414 26.92407227 C-54.562465 26.80848698 -51.31250312 26.68559226 -48.0625 26.5625 C-46.92619141 26.52318359 -45.78988281 26.48386719 -44.61914062 26.44335938 C-43.53955078 26.40146484 -42.45996094 26.35957031 -41.34765625 26.31640625 C-40.34742432 26.27974854 -39.34719238 26.24309082 -38.31665039 26.20532227 C-36.03930812 26.25328159 -36.03930812 26.25328159 -35 25 C-33.00819591 23.98377342 -31.00847365 22.98287008 -29 22 C-31.49092811 20.75453595 -32.41080733 21.2232422 -35 22 C-32.25 18.125 -32.25 18.125 -30 17 C-29.505 15.515 -29.505 15.515 -29 14 C-28.01 15.98 -27.02 17.96 -26 20 C-23.0280615 18.87548273 -20.66559313 17.77706209 -18 16 C-17.01 16 -16.02 16 -15 16 C-14.67 15.34 -14.34 14.68 -14 14 C-13.67 14 -13.34 14 -13 14 C-13.495 10.535 -13.495 10.535 -14 7 C-13.01 7 -12.02 7 -11 7 C-11 8.32 -11 9.64 -11 11 C-10.34 10.01 -9.68 9.02 -9 8 C-8.34 8 -7.68 8 -7 8 C-6.67 6.68 -6.34 5.36 -6 4 C-5.34 4 -4.68 4 -4 4 C-3.67 3.34 -3.34 2.68 -3 2 C-2.34 1.67 -1.68 1.34 -1 1 C-0.505 1.99 -0.505 1.99 0 3 C0 2.01 0 1.02 0 0 Z " fill="#C1671C" transform="translate(111,60)"/>
<path d="M0 0 C6.04096131 2.85929491 12.06606018 6.44037376 16.125 11.8125 C18.19871574 19.3667502 17.60108465 27.01435161 14 34 C11.8973704 36.99581981 9.67278568 39.8646378 7.40625 42.73828125 C4.83906596 46.09228251 2.82587647 49.67032847 0.8125 53.375 C-1.9095219 58.35963936 -4.65205374 62.30424568 -9 66 C-9.66 65.67 -10.32 65.34 -11 65 C-9.71937515 63.2925002 -8.38232443 61.62626404 -7 60 C-6.34 60 -5.68 60 -5 60 C-5 59.01 -5 58.02 -5 57 C-7.475 57.495 -7.475 57.495 -10 58 C-10 55 -10 55 -8 53 C-8.33 52.34 -8.66 51.68 -9 51 C-8.72057545 49.32345271 -8.39171753 47.65391846 -8 46 C-5.53199953 47.15173355 -3.95216435 48.04783565 -2 50 C-1.79375 49.443125 -1.5875 48.88625 -1.375 48.3125 C0.55000774 45.07498698 3.03850902 43.31768859 6 41 C5.34 40.113125 4.68 39.22625 4 38.3125 C2.01139933 35.01888014 1.56264926 33.71748127 2 30 C2.66 30 3.32 30 4 30 C4 30.66 4 31.32 4 32 C4.99 32 5.98 32 7 32 C7.33 30.35 7.66 28.7 8 27 C8.99 27 9.98 27 11 27 C9.02 25.68 7.04 24.36 5 23 C7.48952921 20.33264727 9.63408134 18.44253657 13 17 C12.67 16.071875 12.34 15.14375 12 14.1875 C11 11 11 11 11 8 C10.29875 7.7525 9.5975 7.505 8.875 7.25 C5.60485452 5.82819762 2.858878 4.12753712 0 2 C0 1.34 0 0.68 0 0 Z " fill="#B9631B" transform="translate(48,5)"/>
<path d="M0 0 C0.33 0.66 0.66 1.32 1 2 C1.99 1.67 2.98 1.34 4 1 C10.5435791 0.93546766 15.36271085 2.82261884 21 6 C20.01 6.33 19.02 6.66 18 7 C17.26676204 9.01508358 17.26676204 9.01508358 17 11 C15.68 10.34 14.36 9.68 13 9 C13.2165625 9.86625 13.2165625 9.86625 13.4375 10.75 C14.21875 13.875 14.21875 13.875 15 17 C13.02 16.67 11.04 16.34 9 16 C9 18.31 9 20.62 9 23 C7.35 22.34 5.7 21.68 4 21 C3.67 21.99 3.34 22.98 3 24 C2.54625 23.360625 2.0925 22.72125 1.625 22.0625 C-2.25013836 19.01774843 -6.1922647 19.18350135 -11 19 C-11.15234375 16.63671875 -11.15234375 16.63671875 -11 14 C-8.5625 11.8125 -8.5625 11.8125 -6 10 C-5.67 9.34 -5.34 8.68 -5 8 C-3.15234375 7.1484375 -3.15234375 7.1484375 -0.9375 6.375 C-0.20402344 6.11460938 0.52945313 5.85421875 1.28515625 5.5859375 C1.85105469 5.39257812 2.41695312 5.19921875 3 5 C3 5.66 3 6.32 3 7 C3.928125 7.4640625 3.928125 7.4640625 4.875 7.9375 C6.25 8.625 7.625 9.3125 9 10 C5.7563651 5.2920022 5.7563651 5.2920022 0.6875 3.125 C-0.199375 3.08375 -1.08625 3.0425 -2 3 C-1.34 2.01 -0.68 1.02 0 0 Z " fill="#60340F" transform="translate(73,44)"/>
<path d="M0 0 C2.31 0.33 4.62 0.66 7 1 C6.01 1.495 6.01 1.495 5 2 C6.80412643 5.26460973 7.83394693 6.88929795 11 9 C11 9.99 11 10.98 11 12 C9.68 12.33 8.36 12.66 7 13 C7 13.99 7 14.98 7 16 C7.99 16.33 8.98 16.66 10 17 C10 17.66 10 18.32 10 19 C8.02 19 6.04 19 4 19 C4.33 19.66 4.66 20.32 5 21 C4.40832031 20.88140625 3.81664062 20.7628125 3.20703125 20.640625 C-2.17965216 19.70518746 -2.17965216 19.70518746 -7.0625 21.9375 C-8.0215625 22.9584375 -8.0215625 22.9584375 -9 24 C-9.07427838 20.65747276 -9.06546953 18.1964086 -8 15 C-8 13.68 -8 12.36 -8 11 C-7.01 10.34 -6.02 9.68 -5 9 C-4.27034634 6.43717258 -4.27034634 6.43717258 -4 4 C-3.67 4.66 -3.34 5.32 -3 6 C-1.02 6 0.96 6 3 6 C1.35 5.01 -0.3 4.02 -2 3 C-1.34 2.01 -0.68 1.02 0 0 Z " fill="#AF5E1A" transform="translate(28,25)"/>
<path d="M0 0 C0.66 0.99 1.32 1.98 2 3 C1.34515625 3.1959375 0.6903125 3.391875 0.015625 3.59375 C-5.6066848 5.4360888 -10.16639091 7.62709459 -15 11.0625 C-27.34796725 19.55271564 -41.63189643 19.33199587 -56 17 C-56 16.67 -56 16.34 -56 16 C-54.02 15.67 -52.04 15.34 -50 15 C-50 14.67 -50 14.34 -50 14 C-48.91730835 13.96241577 -48.91730835 13.96241577 -47.81274414 13.92407227 C-44.562465 13.80848698 -41.31250312 13.68559226 -38.0625 13.5625 C-36.92619141 13.52318359 -35.78988281 13.48386719 -34.61914062 13.44335938 C-32.99975586 13.38051758 -32.99975586 13.38051758 -31.34765625 13.31640625 C-30.34742432 13.27974854 -29.34719238 13.24309082 -28.31665039 13.20532227 C-26.03930812 13.25328159 -26.03930812 13.25328159 -25 12 C-23.00819591 10.98377342 -21.00847365 9.98287008 -19 9 C-21.49092811 7.75453595 -22.41080733 8.2232422 -25 9 C-22.25 5.125 -22.25 5.125 -20 4 C-19.67 3.01 -19.34 2.02 -19 1 C-18.01 2.98 -17.02 4.96 -16 7 C-13.0280615 5.87548273 -10.66559313 4.77706209 -8 3 C-7.01 3 -6.02 3 -5 3 C-4.67 2.34 -4.34 1.68 -4 1 C-2.68 1.33 -1.36 1.66 0 2 C0 1.34 0 0.68 0 0 Z " fill="#62340F" transform="translate(101,73)"/>
<path d="M0 0 C2.97 0.495 2.97 0.495 6 1 C5.01 2.485 5.01 2.485 4 4 C7.42094242 6.28062828 8.68187222 6.21925007 12.6875 6.125 C13.68136719 6.10695313 14.67523437 6.08890625 15.69921875 6.0703125 C16.45847656 6.04710938 17.21773437 6.02390625 18 6 C18.33 4.35 18.66 2.7 19 1 C20.231394 3.46278801 20.07159196 5.2795055 20 8 C22.31 8.66 24.62 9.32 27 10 C26.34 9.34 25.68 8.68 25 8 C25.66 8 26.32 8 27 8 C25.69844994 3.92035719 25.69844994 3.92035719 24 0 C25.9375 0.6875 25.9375 0.6875 28 2 C28.75 4.625 28.75 4.625 29 7 C30.98 7.33 32.96 7.66 35 8 C35 8.33 35 8.66 35 9 C33.02 9 31.04 9 29 9 C30.73559438 12.057952 32.38472619 14.63379989 35 17 C28.9243599 17.77561363 25.88161802 16.06549965 20.91796875 12.60546875 C19 11 19 11 17 8 C16.360625 8.309375 15.72125 8.61875 15.0625 8.9375 C7.32437477 11.62215569 1.51920088 11.14633228 -6 8 C-5.67 7.01 -5.34 6.02 -5 5 C-3.35 5 -1.7 5 0 5 C0 4.01 0 3.02 0 2 C0 1.34 0 0.68 0 0 Z " fill="#6A472A" transform="translate(9,80)"/>
<path d="M0 0 C0.33 0 0.66 0 1 0 C1.59841737 10.97098507 -1.85524236 17.1948162 -8.59375 25.73828125 C-11.16093404 29.09228251 -13.17412353 32.67032847 -15.1875 36.375 C-17.9095219 41.35963936 -20.65205374 45.30424568 -25 49 C-25.66 48.67 -26.32 48.34 -27 48 C-25.71937515 46.2925002 -24.38232443 44.62626404 -23 43 C-22.34 43 -21.68 43 -21 43 C-21 42.01 -21 41.02 -21 40 C-23.475 40.495 -23.475 40.495 -26 41 C-26 38 -26 38 -24 36 C-24.33 35.34 -24.66 34.68 -25 34 C-24.72057545 32.32345271 -24.39171753 30.65391846 -24 29 C-21.53199953 30.15173355 -19.95216435 31.04783565 -18 33 C-17.79375 32.443125 -17.5875 31.88625 -17.375 31.3125 C-16.00528548 29.00888922 -14.9642565 28.09157983 -12.875 26.5 C-11.451875 25.2625 -11.451875 25.2625 -10 24 C-10 22.68 -10 21.36 -10 20 C-9.25 17.8125 -9.25 17.8125 -8 16 C-5.875 15.25 -5.875 15.25 -4 15 C-3.67 13.68 -3.34 12.36 -3 11 C-2.34 11 -1.68 11 -1 11 C-1.33 10.01 -1.66 9.02 -2 8 C-1.57828987 5.18859911 -0.90039838 2.70119513 0 0 Z " fill="#9A5217" transform="translate(64,22)"/>
<path d="M0 0 C6.21790059 -0.2960905 12.48914688 -0.29667106 18 3 C18.75 5.109375 18.75 5.109375 19 7 C16.03 6.505 16.03 6.505 13 6 C13 8.31 13 10.62 13 13 C11.35 12.34 9.7 11.68 8 11 C7.67 11.99 7.34 12.98 7 14 C6.319375 13.0409375 6.319375 13.0409375 5.625 12.0625 C1.74986164 9.01774843 -2.1922647 9.18350135 -7 9 C-7.15625 6.61328125 -7.15625 6.61328125 -7 4 C-4.5 2.1875 -4.5 2.1875 -2 1 C-1.67 1.66 -1.34 2.32 -1 3 C1.34038186 4.13102526 1.34038186 4.13102526 4.0625 5.125 C4.98160156 5.47820313 5.90070313 5.83140625 6.84765625 6.1953125 C7.55792969 6.46085937 8.26820312 6.72640625 9 7 C8.34 6.01 7.68 5.02 7 4 C7 3.01 7 2.02 7 1 C5.02 1 3.04 1 1 1 C0.67 1.66 0.34 2.32 0 3 C0 2.01 0 1.02 0 0 Z " fill="#C5691C" transform="translate(69,54)"/>
<path d="M0 0 C0.66 0 1.32 0 2 0 C2 2.64 2 5.28 2 8 C2.47566406 7.67515625 2.95132812 7.3503125 3.44140625 7.015625 C7.24813219 5.50455821 10.88056324 5.710897 14.9375 5.75 C15.73607422 5.74226563 16.53464844 5.73453125 17.35742188 5.7265625 C21.68529055 5.74090506 25.05851129 5.99342393 29 8 C25.79984144 9.06671952 24.11455706 8.94845472 20.8125 8.5625 C19.91144531 8.46066406 19.01039062 8.35882813 18.08203125 8.25390625 C17.39496094 8.17011719 16.70789063 8.08632813 16 8 C16.33 9.32 16.66 10.64 17 12 C15.68 11.67 14.36 11.34 13 11 C13 10.34 13 9.68 13 9 C10.69 9 8.38 9 6 9 C5.67 9.66 5.34 10.32 5 11 C6.65 11.99 8.3 12.98 10 14 C6.37673261 15.2077558 5.35853631 14.54311128 2 13 C2 14.65 2 16.3 2 18 C0.68 18.33 -0.64 18.66 -2 19 C-1.773125 19.9075 -1.54625 20.815 -1.3125 21.75 C-1 25 -1 25 -2.48046875 27.203125 C-2.98191406 27.79609375 -3.48335937 28.3890625 -4 29 C-3.47594437 22.30992818 -2.89536075 15.6512513 -2 9 C-1.34 9 -0.68 9 0 9 C0 6.03 0 3.06 0 0 Z " fill="#C5691D" transform="translate(22,17)"/>
<path d="M0 0 C0.495 0.99 0.495 0.99 1 2 C1.66 2.33 2.32 2.66 3 3 C-1.57302744 6.37224822 -5.80827935 8.13770593 -11.25 9.6875 C-16.23281107 11.05833361 -16.23281107 11.05833361 -21 13 C-20.50243908 15.75641416 -20.50243908 15.75641416 -19 18 C-19 20 -19 22 -19 24 C-18.67 24.66 -18.34 25.32 -18 26 C-24.75 25.25 -24.75 25.25 -27 23 C-26.811672 17.25599586 -26.11754815 14.25037228 -22 10 C-23.093125 10.515625 -24.18625 11.03125 -25.3125 11.5625 C-29 13 -29 13 -32 12 C-30.04414675 10.99515796 -28.08523763 9.99626195 -26.125 9 C-25.03445312 8.443125 -23.94390625 7.88625 -22.8203125 7.3125 C-20 6 -20 6 -18 6 C-18 6.99 -18 7.98 -18 9 C-15.3684458 8.2686797 -12.74638139 7.51624995 -10.125 6.75 C-9.37863281 6.54503906 -8.63226563 6.34007813 -7.86328125 6.12890625 C-3.5482847 4.91598238 -3.5482847 4.91598238 -0.4921875 1.828125 C-0.32976563 1.22484375 -0.16734375 0.6215625 0 0 Z " fill="#8B4D1A" transform="translate(55,65)"/>
<path d="M0 0 C0.99 0.99 1.98 1.98 3 3 C3.33 2.34 3.66 1.68 4 1 C4.66 1 5.32 1 6 1 C6.00257812 1.556875 6.00515625 2.11375 6.0078125 2.6875 C6.2518657 7.50348323 6.91389532 10.33603375 10.0625 14.0625 C12.51152131 16.96742504 13.40864177 18.67156631 13.375 22.5 C13.25125 23.655 13.1275 24.81 13 26 C12.67 26 12.34 26 12 26 C11.34 23.69 10.68 21.38 10 19 C9.01 19 8.02 19 7 19 C6.31292445 16.50935112 6 14.62113708 6 12 C4.35 12.66 2.7 13.32 1 14 C1 12.68 1 11.36 1 10 C0.34 9.67 -0.32 9.34 -1 9 C-0.67 8.67 -0.34 8.34 0 8 C-0.99 7.01 -1.98 6.02 -3 5 C-2 3 -2 3 0 0 Z " fill="#AD5D1A" transform="translate(114,51)"/>
<path d="M0 0 C3.3125 -0.25 3.3125 -0.25 7 0 C8.9375 2 8.9375 2 10 4 C9.34 4 8.68 4 8 4 C8.33 4.66 8.66 5.32 9 6 C9.46153846 11.42307692 9.46153846 11.42307692 7.5 13.875 C7.005 14.24625 6.51 14.6175 6 15 C5.67 12.36 5.34 9.72 5 7 C2.69 7.66 0.38 8.32 -2 9 C-2.33 10.65 -2.66 12.3 -3 14 C-3.66 14 -4.32 14 -5 14 C-4.46515599 8.65155992 -2.53309233 4.64203897 0 0 Z " fill="#93541F" transform="translate(38,1)"/>
<path d="M0 0 C2.38564077 0.57584432 4.66682784 1.22227595 7 2 C7 2.99 7 3.98 7 5 C7.99 5.33 8.98 5.66 10 6 C10 6.66 10 7.32 10 8 C8.02 8 6.04 8 4 8 C4.33 8.66 4.66 9.32 5 10 C4.40832031 9.88140625 3.81664062 9.7628125 3.20703125 9.640625 C-2.17965216 8.70518746 -2.17965216 8.70518746 -7.0625 10.9375 C-7.701875 11.618125 -8.34125 12.29875 -9 13 C-9.31424507 9.54330418 -9.37956836 7.60098323 -7.5 4.625 C-3.86748926 2.26386802 -1.28156703 2.7145622 3 3 C2.01 2.01 1.02 1.02 0 0 Z " fill="#BB641B" transform="translate(28,36)"/>
<path d="M0 0 C0.33 0.66 0.66 1.32 1 2 C1.928125 2.020625 2.85625 2.04125 3.8125 2.0625 C7 3 7 3 8.28515625 5.0625 C9.28315697 7.35182066 10.18894342 9.63839407 11 12 C7.33333333 12 3.66666667 12 0 12 C-1.49498913 9.01002175 -1.11577446 6.29957225 -1 3 C-0.67 2.01 -0.34 1.02 0 0 Z " fill="#C8742F" transform="translate(1,74)"/>
<path d="M0 0 C0.33 0 0.66 0 1 0 C1.60439798 11.0806297 -1.97325843 17.45440838 -8.76953125 26.11328125 C-11.46777174 29.60539985 -13.74230861 33.21290477 -16 37 C-17.52205994 33.95588012 -16.95027678 32.23094106 -16 29 C-14.59375 27.63671875 -14.59375 27.63671875 -12.9375 26.375 C-11.968125 25.59125 -10.99875 24.8075 -10 24 C-10 22.68 -10 21.36 -10 20 C-9.25 17.8125 -9.25 17.8125 -8 16 C-5.875 15.25 -5.875 15.25 -4 15 C-3.67 13.68 -3.34 12.36 -3 11 C-2.34 11 -1.68 11 -1 11 C-1.33 10.01 -1.66 9.02 -2 8 C-1.57828987 5.18859911 -0.90039838 2.70119513 0 0 Z " fill="#8D4B15" transform="translate(64,22)"/>
<path d="M0 0 C0.66 0.33 1.32 0.66 2 1 C2 2.65 2 4.3 2 6 C2.639375 6.12375 3.27875 6.2475 3.9375 6.375 C4.618125 6.58125 5.29875 6.7875 6 7 C7.4783226 9.95664519 7.06032783 12.74229737 7 16 C6.34 16.33 5.68 16.66 5 17 C4.34 16.34 3.68 15.68 3 15 C2.01 16.485 2.01 16.485 1 18 C-0.75734451 13.02638346 -2.32584613 8.2584002 -3 3 C-2.01 2.67 -1.02 2.34 0 2 C0 1.34 0 0.68 0 0 Z " fill="#B46422" transform="translate(119,62)"/>
<path d="M0 0 C0.99 0.33 1.98 0.66 3 1 C3.625 2.6875 3.625 2.6875 4 5 C4.3403125 6.5159375 4.3403125 6.5159375 4.6875 8.0625 C5 11 5 11 3 14 C-1.7517398 13.56802365 -3.92000054 12.67230705 -7 9 C-1.25 4 -1.25 4 1 4 C0.67 2.68 0.34 1.36 0 0 Z " fill="#542E0E" transform="translate(99,33)"/>
<path d="M0 0 C-0.99 0.495 -0.99 0.495 -2 1 C-1.67 1.66 -1.34 2.32 -1 3 C-5.45329571 4.10892344 -9.81532302 4.14891439 -14.375 4.125 C-15.10460938 4.12886719 -15.83421875 4.13273437 -16.5859375 4.13671875 C-21.157444 4.12855535 -25.49000287 3.7496829 -30 3 C-30 2.67 -30 2.34 -30 2 C-28.02 1.67 -26.04 1.34 -24 1 C-24 0.67 -24 0.34 -24 0 C-20.75052139 -0.19738568 -17.50041127 -0.3811754 -14.25 -0.5625 C-13.32960938 -0.61857422 -12.40921875 -0.67464844 -11.4609375 -0.73242188 C-10.57148437 -0.78076172 -9.68203125 -0.82910156 -8.765625 -0.87890625 C-7.94868164 -0.9260376 -7.13173828 -0.97316895 -6.29003906 -1.02172852 C-4.02117925 -1.00020095 -2.16679079 -0.64612135 0 0 Z " fill="#AF5D1A" transform="translate(75,87)"/>
<path d="M0 0 C1.9375 0.6875 1.9375 0.6875 4 2 C4.75 4.625 4.75 4.625 5 7 C7.97 7.495 7.97 7.495 11 8 C11 8.33 11 8.66 11 9 C9.02 9 7.04 9 5 9 C6.73559438 12.057952 8.38472619 14.63379989 11 17 C4.88225104 17.49940808 1.97504047 16.24900602 -3 13 C-2.67 12.01 -2.34 11.02 -2 10 C-0.35 10 1.3 10 3 10 C2.34 9.34 1.68 8.68 1 8 C1.66 8 2.32 8 3 8 C1.69844994 3.92035719 1.69844994 3.92035719 0 0 Z " fill="#60422A" transform="translate(33,80)"/>
<path d="M0 0 C0.33 0.66 0.66 1.32 1 2 C1.66 2.33 2.32 2.66 3 3 C5 4 5 4 6 6 C2.04 6 -1.92 6 -6 6 C-3.66666667 6 -1.33333333 6 1 6 C1.99 8.31 2.98 10.62 4 13 C-0.23429756 11.68938409 -4.07407404 10.05643741 -8 8 C-7.9375 5.6875 -7.9375 5.6875 -7 3 C-3.4375 1.1875 -3.4375 1.1875 0 0 Z " fill="#683912" transform="translate(75,49)"/>
<path d="M0 0 C1.4783226 2.95664519 1.06032783 5.74229737 1 9 C-1.97 9 -4.94 9 -8 9 C-7.6875 5.625 -7.6875 5.625 -7 2 C-4 0 -4 0 0 0 Z " fill="#4D2A0D" transform="translate(43,8)"/>
<path d="M0 0 C0 0.66 0 1.32 0 2 C-4.52971095 5.77672003 -9.06443783 7.77170915 -15 8 C-17.4375 7.5625 -17.4375 7.5625 -19 7 C-19.66 8.65 -20.32 10.3 -21 12 C-19.35 12 -17.7 12 -16 12 C-16 12.33 -16 12.66 -16 13 C-17.98 13 -19.96 13 -22 13 C-22.33 12.34 -22.66 11.68 -23 11 C-20.00729927 4.43907917 -20.00729927 4.43907917 -16.5625 2.9375 C-14 3 -14 3 -11.625 4.25 C-9.07169227 5.31070361 -9.07169227 5.31070361 -7.19921875 4.0234375 C-5.95788352 3.1033588 -4.74016515 2.15038085 -3.55078125 1.1640625 C-2 0 -2 0 0 0 Z " fill="#AA7447" transform="translate(99,33)"/>
<path d="M0 0 C2.85194705 -0.23766225 5.2009372 -0.40448884 8 0 C12.38355398 3.75733198 14.55433166 9.83803609 17 15 C16.01 15.495 16.01 15.495 15 16 C15 15.01 15 14.02 15 13 C14.34 13 13.68 13 13 13 C12.34 11.02 11.68 9.04 11 7 C10.34 7 9.68 7 9 7 C8.67 7.99 8.34 8.98 8 10 C8 7.69 8 5.38 8 3 C7.34 3 6.68 3 6 3 C5.67 4.65 5.34 6.3 5 8 C3.5 6.6875 3.5 6.6875 2 5 C2 4.01 2 3.02 2 2 C1.34 1.34 0.68 0.68 0 0 Z " fill="#B16B32" transform="translate(99,32)"/>
<path d="M0 0 C1.91423658 0.81210037 3.52072017 1.52072017 5 3 C5 5 5 7 5 9 C5.33 9.66 5.66 10.32 6 11 C-0.75 10.25 -0.75 10.25 -3 8 C-2.75 4.4375 -2.75 4.4375 -2 1 C-1.34 0.67 -0.68 0.34 0 0 Z " fill="#EE7F22" transform="translate(31,80)"/>
<path d="M0 0 C2.31 0.33 4.62 0.66 7 1 C6.01 1.495 6.01 1.495 5 2 C5.66 3.65 6.32 5.3 7 7 C5.26043342 8.73956658 2.8063378 8.37190386 0.4375 8.5625 C-1.08037109 8.68818359 -1.08037109 8.68818359 -2.62890625 8.81640625 C-3.41136719 8.87699219 -4.19382812 8.93757813 -5 9 C-4.67 7.35 -4.34 5.7 -4 4 C-3.67 4.66 -3.34 5.32 -3 6 C-1.02 6 0.96 6 3 6 C1.35 5.01 -0.3 4.02 -2 3 C-1.34 2.01 -0.68 1.02 0 0 Z " fill="#5D320F" transform="translate(28,25)"/>
<path d="M0 0 C0.66 0.66 1.32 1.32 2 2 C2.66 1.67 3.32 1.34 4 1 C4.9375 3.625 4.9375 3.625 5 7 C2.9456142 9.38782014 0.56957396 11.19296794 -2 13 C-2.66 12.67 -3.32 12.34 -4 12 C-3.67 11.01 -3.34 10.02 -3 9 C-3.66 8.67 -4.32 8.34 -5 8 C-4.67 6.02 -4.34 4.04 -4 2 C-3.01 1.67 -2.02 1.34 -1 1 C-0.67 1.66 -0.34 2.32 0 3 C0 2.01 0 1.02 0 0 Z " fill="#934E16" transform="translate(111,60)"/>
<path d="M0 0 C6.19426585 2.93185669 12.32567466 6.51243092 16.1875 12.25 C17 15 17 15 16 18 C11.07692308 13.69230769 11.07692308 13.69230769 10.6875 10.1875 C10.790625 9.465625 10.89375 8.74375 11 8 C10.29875 7.7525 9.5975 7.505 8.875 7.25 C5.60485452 5.82819762 2.858878 4.12753712 0 2 C0 1.34 0 0.68 0 0 Z " fill="#AB7447" transform="translate(48,5)"/>
<path d="M0 0 C0.33 0 0.66 0 1 0 C2.24501197 9.86432562 2.24501197 9.86432562 1 15 C1.33 15.99 1.66 16.98 2 18 C0.68 18.33 -0.64 18.66 -2 19 C-1.773125 19.9075 -1.54625 20.815 -1.3125 21.75 C-1 25 -1 25 -2.48046875 27.203125 C-2.98191406 27.79609375 -3.48335937 28.3890625 -4 29 C-3.47594437 22.30992818 -2.89536075 15.6512513 -2 9 C-1.34 9 -0.68 9 0 9 C0 6.03 0 3.06 0 0 Z " fill="#9D826C" transform="translate(22,17)"/>
<path d="M0 0 C4.83256305 0.41421969 6.82679218 2.46413986 10 6 C9.01 6.33 8.02 6.66 7 7 C7 7.66 7 8.32 7 9 C3.18315774 7.44499019 0.80804268 4.96404505 -2 2 C-1.34 2 -0.68 2 0 2 C0 1.34 0 0.68 0 0 Z " fill="#B4601A" transform="translate(41,44)"/>
<path d="M0 0 C6.65545792 -0.54330269 10.45834744 0.22695996 16 4 C15.34 4.66 14.68 5.32 14 6 C13.67 6.66 13.34 7.32 13 8 C12.54625 7.360625 12.0925 6.72125 11.625 6.0625 C7.74986164 3.01774843 3.8077353 3.18350135 -1 3 C-0.67 2.01 -0.34 1.02 0 0 Z " fill="#633510" transform="translate(63,60)"/>
<path d="M0 0 C0.66 0 1.32 0 2 0 C2 0.66 2 1.32 2 2 C2.99 2 3.98 2 5 2 C5.33 1.34 5.66 0.68 6 0 C7.9375 0.375 7.9375 0.375 10 1 C10.33 1.66 10.66 2.32 11 3 C10.38125 3.28875 9.7625 3.5775 9.125 3.875 C6.86674235 4.93720042 6.86674235 4.93720042 5 7 C5.33 7.66 5.66 8.32 6 9 C4.125 8.75 4.125 8.75 2 8 C-0.02755186 5.06004981 0 3.72295997 0 0 Z " fill="#C66A1D" transform="translate(50,35)"/>
<path d="M0 0 C0.33 0.99 0.66 1.98 1 3 C-1.64 4.98 -4.28 6.96 -7 9 C-6.34 10.32 -5.68 11.64 -5 13 C-7.86697492 11.71480435 -9.97607712 10.42870746 -12 8 C-12 7.34 -12 6.68 -12 6 C-10.948125 5.566875 -9.89625 5.13375 -8.8125 4.6875 C-5.70539018 3.36129459 -2.85481805 1.8167024 0 0 Z " fill="#E87B21" transform="translate(99,34)"/>
<path d="M0 0 C3.25 -0.3125 3.25 -0.3125 7 0 C9.4375 2.375 9.4375 2.375 11 5 C11 5.66 11 6.32 11 7 C8.50638429 5.79618552 6.31856917 4.54571278 4 3 C3.01 3.66 2.02 4.32 1 5 C-0.32 5 -1.64 5 -3 5 C-3.33 5.66 -3.66 6.32 -4 7 C-4 6.01 -4 5.02 -4 4 C-3.01 3.67 -2.02 3.34 -1 3 C-0.67 2.01 -0.34 1.02 0 0 Z " fill="#CA854B" transform="translate(71,47)"/>
<path d="M0 0 C0.639375 0.391875 1.27875 0.78375 1.9375 1.1875 C5.91343057 3.54060176 9.95412729 5.76992201 14 8 C13.67 8.66 13.34 9.32 13 10 C12.030625 9.360625 11.06125 8.72125 10.0625 8.0625 C5.8446362 5.61648472 1.80480758 5.21790511 -3 5 C-3.33 5.66 -3.66 6.32 -4 7 C-3.6875 4.625 -3.6875 4.625 -3 2 C-2.01 1.34 -1.02 0.68 0 0 Z " fill="#C67E42" transform="translate(66,55)"/>
<path d="M0 0 C0.66 0.33 1.32 0.66 2 1 C1.979375 2.0725 1.95875 3.145 1.9375 4.25 C1.9857984 7.14790424 2.13155885 9.28612141 3 12 C1.35 11.67 -0.3 11.34 -2 11 C-2.33 8.36 -2.66 5.72 -3 3 C-2.01 2.67 -1.02 2.34 0 2 C0 1.34 0 0.68 0 0 Z " fill="#CC6D1D" transform="translate(119,62)"/>
<path d="M0 0 C1.89213369 2.38573379 3.02391783 4.07175348 4 7 C-0.75 11.875 -0.75 11.875 -3 13 C-3.66 12.34 -4.32 11.68 -5 11 C-3.02 10.01 -1.04 9.02 1 8 C-1.49092811 6.75453595 -2.41080733 7.2232422 -5 8 C-2.25 4.125 -2.25 4.125 0 3 C0 2.01 0 1.02 0 0 Z " fill="#9F5517" transform="translate(81,74)"/>
<path d="M0 0 C6.87516644 6.69424101 6.87516644 6.69424101 7.1953125 10.04296875 C7.09765625 13.02148438 7.09765625 13.02148438 7 16 C6.67 16 6.34 16 6 16 C5.34 13.69 4.68 11.38 4 9 C3.01 9 2.02 9 1 9 C0.08941469 5.92677456 -0.08886184 3.19902639 0 0 Z " fill="#AE8059" transform="translate(120,61)"/>
<path d="M0 0 C2.89608593 -0.05413245 5.79115195 -0.09373641 8.6875 -0.125 C9.91243164 -0.15013672 9.91243164 -0.15013672 11.16210938 -0.17578125 C15.57092929 -0.2114802 18.98731576 -0.07580814 23 2 C19.79984144 3.06671952 18.11455706 2.94845472 14.8125 2.5625 C13.91144531 2.46066406 13.01039062 2.35882812 12.08203125 2.25390625 C11.39496094 2.17011719 10.70789062 2.08632813 10 2 C10.33 3.32 10.66 4.64 11 6 C9.68 5.67 8.36 5.34 7 5 C7 4.01 7 3.02 7 2 C4.69 1.67 2.38 1.34 0 1 C0 0.67 0 0.34 0 0 Z " fill="#8A4A15" transform="translate(28,23)"/>
<path d="M0 0 C0.99773438 0.02320313 1.99546875 0.04640625 3.0234375 0.0703125 C4.52777344 0.09738281 4.52777344 0.09738281 6.0625 0.125 C6.83335938 0.14820313 7.60421875 0.17140625 8.3984375 0.1953125 C8.3984375 1.1853125 8.3984375 2.1753125 8.3984375 3.1953125 C5.3984375 3.1953125 5.3984375 3.1953125 2.5234375 2.9453125 C-1.34377302 3.25468934 -2.82438719 4.58150044 -5.6015625 7.1953125 C-4.51902891 0.33926643 -4.51902891 0.33926643 0 0 Z " fill="#5C3312" transform="translate(24.6015625,41.8046875)"/>
<path d="M0 0 C1.70840281 1.63412443 2.93453047 2.86906094 4 5 C4.66 4.67 5.32 4.34 6 4 C6.66 5.32 7.32 6.64 8 8 C6.35 8.66 4.7 9.32 3 10 C0.59185923 6.48812804 -0.36629408 4.27343092 0 0 Z " fill="#C2671C" transform="translate(82,71)"/>
<path d="M0 0 C-0.65061095 1.67299959 -1.32033324 3.33859237 -2 5 C-2.433125 6.11375 -2.433125 6.11375 -2.875 7.25 C-4 9 -4 9 -6.125 9.75 C-7.053125 9.87375 -7.053125 9.87375 -8 10 C-6.68 8.02 -5.36 6.04 -4 4 C-5.093125 4.515625 -6.18625 5.03125 -7.3125 5.5625 C-11 7 -11 7 -14 6 C-12.04414675 4.99515796 -10.08523763 3.99626195 -8.125 3 C-6.48917969 2.1646875 -6.48917969 2.1646875 -4.8203125 1.3125 C-2 0 -2 0 0 0 Z " fill="#985117" transform="translate(37,71)"/>
<path d="M0 0 C4.44870215 -0.39253254 7.14243493 0.84694043 11 3 C10.01 3.33 9.02 3.66 8 4 C7.26676204 6.01508358 7.26676204 6.01508358 7 8 C3.125 5.375 3.125 5.375 2 2 C1.34 1.34 0.68 0.68 0 0 Z " fill="#A65818" transform="translate(83,47)"/>
<path d="M0 0 C0.99 0.495 0.99 0.495 2 1 C2.763125 0.79375 3.52625 0.5875 4.3125 0.375 C7.82870114 -0.11563272 9.20931191 0.92691742 12 3 C12 3.33 12 3.66 12 4 C8 4 4 4 0 4 C0 2.68 0 1.36 0 0 Z " fill="#5B310F" transform="translate(20,36)"/>
<path d="M0 0 C0.33 0.66 0.66 1.32 1 2 C0.06692579 3.44037669 -0.87165077 4.87718985 -1.8125 6.3125 C-2.33457031 7.11300781 -2.85664062 7.91351563 -3.39453125 8.73828125 C-4.80389849 10.7237402 -6.22096657 12.3491852 -8 14 C-8.3125 11.3125 -8.3125 11.3125 -8 8 C-5.6875 5.3125 -5.6875 5.3125 -3 3 C-2.401875 2.401875 -1.80375 1.80375 -1.1875 1.1875 C-0.795625 0.795625 -0.40375 0.40375 0 0 Z " fill="#572F0E" transform="translate(55,45)"/>
<path d="M0 0 C0.66 0.33 1.32 0.66 2 1 C2 1.66 2 2.32 2 3 C2.66 3 3.32 3 4 3 C4.1875 5.8125 4.1875 5.8125 4 9 C2.48828125 10.69921875 2.48828125 10.69921875 1 12 C0.63896464 10.18885568 0.28634496 8.37603177 -0.0625 6.5625 C-0.25972656 5.55316406 -0.45695312 4.54382813 -0.66015625 3.50390625 C-0.77230469 2.67761719 -0.88445313 1.85132813 -1 1 C-0.67 0.67 -0.34 0.34 0 0 Z " fill="#CA6C1D" transform="translate(43,4)"/>
<path d="M0 0 C1.98 0.99 3.96 1.98 6 3 C6 5.97 6 8.94 6 12 C5.01 11.67 4.02 11.34 3 11 C2.87625 10.236875 2.7525 9.47375 2.625 8.6875 C2.11897208 5.79732864 2.11897208 5.79732864 0 3 C0 2.01 0 1.02 0 0 Z " fill="#995217" transform="translate(76,55)"/>
<path d="M0 0 C2.72675159 2.40689803 4.11966596 4.92471023 5.6875 8.1875 C6.12449219 9.08855469 6.56148438 9.98960938 7.01171875 10.91796875 C7.33785156 11.60503906 7.66398437 12.29210938 8 13 C7.01 13.495 7.01 13.495 6 14 C6 13.01 6 12.02 6 11 C5.34 11 4.68 11 4 11 C3.34 9.02 2.68 7.04 2 5 C1.34 5 0.68 5 0 5 C-0.33 5.99 -0.66 6.98 -1 8 C-0.67 5.36 -0.34 2.72 0 0 Z " fill="#AA7C56" transform="translate(108,34)"/>
<path d="M0 0 C1.98 0 3.96 0 6 0 C6.99 2.31 7.98 4.62 9 7 C5.21616321 6.07506212 3.43306306 5.60628829 1.125 2.375 C0.75375 1.59125 0.3825 0.8075 0 0 Z " fill="#542E0E" transform="translate(70,55)"/>
<path d="M0 0 C1 2 1 2 0.9375 4.4375 C0.77767869 7.24528606 0.77767869 7.24528606 3 10 C2.01 10 1.02 10 0 10 C-0.66 9.01 -1.32 8.02 -2 7 C-2.763125 7.20625 -3.52625 7.4125 -4.3125 7.625 C-7 8 -7 8 -10 6 C-5.545 5.505 -5.545 5.505 -1 5 C-0.67 3.35 -0.34 1.7 0 0 Z " fill="#8A6343" transform="translate(28,81)"/>
<path d="M0 0 C1.9375 0.6875 1.9375 0.6875 4 2 C4.75 4.625 4.75 4.625 5 7 C7.97 7.495 7.97 7.495 11 8 C11 8.33 11 8.66 11 9 C9.02 9 7.04 9 5 9 C5.33 9.99 5.66 10.98 6 12 C3 11 3 11 1 8 C1.66 8 2.32 8 3 8 C1.69844994 3.92035719 1.69844994 3.92035719 0 0 Z " fill="#884914" transform="translate(33,80)"/>
<path d="M0 0 C1.65 1.65 3.3 3.3 5 5 C4.25 7.4375 4.25 7.4375 3 10 C0.875 10.8125 0.875 10.8125 -1 11 C-0.649375 10.29875 -0.29875 9.5975 0.0625 8.875 C1.1639193 5.49731414 0.79516141 3.41919407 0 0 Z " fill="#AA5B19" transform="translate(104,64)"/>
<path d="M0 0 C1.134375 0.020625 2.26875 0.04125 3.4375 0.0625 C3.7675 0.7225 4.0975 1.3825 4.4375 2.0625 C3.4784375 2.2171875 3.4784375 2.2171875 2.5 2.375 C1.819375 2.601875 1.13875 2.82875 0.4375 3.0625 C0.1075 4.0525 -0.2225 5.0425 -0.5625 6.0625 C-1.5525 5.7325 -2.5425 5.4025 -3.5625 5.0625 C-4.3125 3.0625 -4.3125 3.0625 -4.5625 1.0625 C-3.5625 0.0625 -3.5625 0.0625 0 0 Z " fill="#C37E44" transform="translate(41.5625,0.9375)"/>
<path d="M0 0 C3.49413605 2.86698342 5.28836874 4.84150148 5.8125 9.3125 C5.874375 10.529375 5.93625 11.74625 6 13 C5.34 12.34 4.68 11.68 4 11 C4 10.01 4 9.02 4 8 C3.34 8 2.68 8 2 8 C0.23537317 4.91190305 0 3.76687864 0 0 Z " fill="#C4681C" transform="translate(106,53)"/>
<path d="M0 0 C1.9375 0.6875 1.9375 0.6875 4 2 C4.75 4.625 4.75 4.625 5 7 C4.01 7.66 3.02 8.32 2 9 C2 8.01 2 7.02 2 6 C1.01 5.67 0.02 5.34 -1 5 C-0.67 3.35 -0.34 1.7 0 0 Z " fill="#B8621B" transform="translate(40,51)"/>
<path d="M0 0 C0.33 0.66 0.66 1.32 1 2 C1.99 1.67 2.98 1.34 4 1 C6.26171875 1.12109375 6.26171875 1.12109375 8.6875 1.4375 C9.49574219 1.53933594 10.30398437 1.64117187 11.13671875 1.74609375 C11.75160156 1.82988281 12.36648437 1.91367187 13 2 C9.74917327 4.16721782 8.70767847 4.27221018 4.9375 4.25 C4.05964844 4.25515625 3.18179688 4.2603125 2.27734375 4.265625 C0 4 0 4 -2 2 C-1.34 1.34 -0.68 0.68 0 0 Z " fill="#814615" transform="translate(73,44)"/>
<path d="M0 0 C0.66 0.99 1.32 1.98 2 3 C-2.95 4.485 -2.95 4.485 -8 6 C-8 5.01 -8 4.02 -8 3 C-7.01 3 -6.02 3 -5 3 C-4.67 2.34 -4.34 1.68 -4 1 C-2.68 1.33 -1.36 1.66 0 2 C0 1.34 0 0.68 0 0 Z " fill="#683810" transform="translate(101,73)"/>
<path d="M0 0 C1.17539996 0.92652701 2.34010577 1.86663387 3.5 2.8125 C4.1496875 3.33457031 4.799375 3.85664062 5.46875 4.39453125 C7 6 7 6 7 9 C6.01 9.495 6.01 9.495 5 10 C4.34 8.35 3.68 6.7 3 5 C2.34 5 1.68 5 1 5 C0.67 3.35 0.34 1.7 0 0 Z " fill="#AF5D1A" transform="translate(46,39)"/>
<path d="M0 0 C2.86867231 1.38264837 5.56024032 2.92148553 8.25 4.625 C8.95640625 5.07101563 9.6628125 5.51703125 10.390625 5.9765625 C10.92171875 6.31429688 11.4528125 6.65203125 12 7 C11.01 7.33 10.02 7.66 9 8 C6.73828125 6.85546875 6.73828125 6.85546875 4.3125 5.1875 C3.50425781 4.64480469 2.69601563 4.10210937 1.86328125 3.54296875 C1.24839844 3.03378906 0.63351563 2.52460937 0 2 C0 1.34 0 0.68 0 0 Z " fill="#AA8B70" transform="translate(48,5)"/>
<path d="M0 0 C0.66 0.99 1.32 1.98 2 3 C0.625 6.6875 0.625 6.6875 -1 10 C-1.66 10 -2.32 10 -3 10 C-2.49287967 6.28111761 -1.88391785 3.26545761 0 0 Z " fill="#E97C21" transform="translate(36,5)"/>
<path d="M0 0 C0.66 0 1.32 0 2 0 C2 2.97 2 5.94 2 9 C1.34 9 0.68 9 0 9 C-0.66 7.68 -1.32 6.36 -2 5 C-1.34 5 -0.68 5 0 5 C0 3.35 0 1.7 0 0 Z " fill="#AB825F" transform="translate(118,52)"/>
<path d="M0 0 C4.875 3.625 4.875 3.625 6 7 C2.20411134 6.45773019 0.52788007 4.79872437 -2 2 C-1.34 2 -0.68 2 0 2 C0 1.34 0 0.68 0 0 Z " fill="#CD6D1E" transform="translate(41,44)"/>
<path d="M0 0 C2.475 0.495 2.475 0.495 5 1 C5.144375 1.61875 5.28875 2.2375 5.4375 2.875 C5.93152225 5.03258322 5.93152225 5.03258322 7 7 C4.13302508 5.71480435 2.02392288 4.42870746 0 2 C0 1.34 0 0.68 0 0 Z " fill="#B25F1A" transform="translate(87,40)"/>
<path d="M0 0 C1.98 0 3.96 0 6 0 C6 0.66 6 1.32 6 2 C6.99 2.33 7.98 2.66 9 3 C6 4 6 4 3.375 3.1875 C1 2 1 2 0 0 Z " fill="#D06F1E" transform="translate(28,87)"/>
<path d="M0 0 C0 0.66 0 1.32 0 2 C-1.6796875 3.32421875 -1.6796875 3.32421875 -3.875 4.6875 C-4.59429687 5.14511719 -5.31359375 5.60273437 -6.0546875 6.07421875 C-7.01761719 6.53248047 -7.01761719 6.53248047 -8 7 C-8.66 6.67 -9.32 6.34 -10 6 C-8.71283353 4.99421411 -7.42011342 3.99553202 -6.125 3 C-5.40570313 2.443125 -4.68640625 1.88625 -3.9453125 1.3125 C-2 0 -2 0 0 0 Z " fill="#A98F79" transform="translate(99,33)"/>
<path d="M0 0 C0.33 0.66 0.66 1.32 1 2 C3.52733235 2.65555119 3.52733235 2.65555119 6 3 C3.35261084 4.4606285 2.10551666 5 -1 5 C-0.67 3.35 -0.34 1.7 0 0 Z " fill="#512C0E" transform="translate(24,29)"/>
<path d="M0 0 C-1.36983503 3.16115776 -1.9890638 3.9927092 -5 6 C-5.99 5.67 -6.98 5.34 -8 5 C-2.25 0 -2.25 0 0 0 Z " fill="#4F2B0D" transform="translate(93,77)"/>
<path d="M0 0 C2.31 0 4.62 0 7 0 C7.33 0.99 7.66 1.98 8 3 C6.35 3 4.7 3 3 3 C3 2.34 3 1.68 3 1 C2.01 0.67 1.02 0.34 0 0 Z " fill="#AF5E1A" transform="translate(30,41)"/>
</svg>
