<svg xmlns="http://www.w3.org/2000/svg" xmlns:xlink="http://www.w3.org/1999/xlink" width="100" zoomAndPan="magnify" viewBox="0 0 75 44.999999" height="60" preserveAspectRatio="xMidYMid meet" version="1.0"><defs><g/></defs><g fill="#ffffff" fill-opacity="1"><g transform="translate(-0.94939, 35.91581)"><g><path d="M 7.328125 -3.734375 L 17.890625 -3.734375 L 17.890625 0 L 3.203125 0 L 3.203125 -24.40625 L 7.328125 -24.40625 Z M 7.328125 -3.734375 "/></g></g></g><g fill="#ffffff" fill-opacity="1"><g transform="translate(22.034082, 35.91581)"><g><path d="M 20.640625 -20.71875 L 7.328125 -20.71875 L 7.328125 -14.125 L 19.25 -14.125 L 19.25 -10.421875 L 7.328125 -10.421875 L 7.328125 -3.703125 L 21.0625 -3.703125 L 21.0625 0 L 3.203125 0 L 3.203125 -24.40625 L 20.640625 -24.40625 Z M 20.640625 -20.71875 "/></g></g></g><g fill="#ffffff" fill-opacity="1"><g transform="translate(49.271628, 35.91581)"><g><path d="M 14.09375 0 L 9.828125 0 L 0.109375 -24.40625 L 4.53125 -24.40625 L 12.0625 -4.5625 L 19.671875 -24.40625 L 23.953125 -24.40625 Z M 14.09375 0 "/></g></g></g></svg>