<svg xmlns="http://www.w3.org/2000/svg" xmlns:xlink="http://www.w3.org/1999/xlink" width="48" zoomAndPan="magnify" viewBox="0 0 36 30.750001" height="41" preserveAspectRatio="xMidYMid meet" version="1.0"><defs><g/><clipPath id="c54a385e57"><path d="M 23 10 L 35.855469 10 L 35.855469 22 L 23 22 Z M 23 10 " clip-rule="nonzero"/></clipPath></defs><g fill="#ffffff" fill-opacity="1"><g transform="translate(0.724352, 21.497135)"><g><path d="M 3.390625 -1.71875 L 8.265625 -1.71875 L 8.265625 0 L 1.484375 0 L 1.484375 -11.28125 L 3.390625 -11.28125 Z M 3.390625 -1.71875 "/></g></g></g><g fill="#ffffff" fill-opacity="1"><g transform="translate(11.3514, 21.497135)"><g><path d="M 9.546875 -9.578125 L 3.390625 -9.578125 L 3.390625 -6.53125 L 8.90625 -6.53125 L 8.90625 -4.828125 L 3.390625 -4.828125 L 3.390625 -1.703125 L 9.734375 -1.703125 L 9.734375 0 L 1.484375 0 L 1.484375 -11.28125 L 9.546875 -11.28125 Z M 9.546875 -9.578125 "/></g></g></g><g clip-path="url(#c54a385e57)"><g fill="#ffffff" fill-opacity="1"><g transform="translate(23.945437, 21.497135)"><g><path d="M 6.515625 0 L 4.546875 0 L 0.046875 -11.28125 L 2.09375 -11.28125 L 5.578125 -2.109375 L 9.09375 -11.28125 L 11.078125 -11.28125 Z M 6.515625 0 "/></g></g></g></g></svg>