<svg xmlns="http://www.w3.org/2000/svg" xmlns:xlink="http://www.w3.org/1999/xlink" width="48" zoomAndPan="magnify" viewBox="0 0 36 30.750001" height="41" preserveAspectRatio="xMidYMid meet" version="1.0"><defs><g/><clipPath id="d9d3a588a5"><path d="M 27 11 L 35.855469 11 L 35.855469 20 L 27 20 Z M 27 11 " clip-rule="nonzero"/></clipPath></defs><g fill="#ffffff" fill-opacity="1"><g transform="translate(0.666055, 19.910671)"><g><path d="M 2.515625 -1.28125 L 6.140625 -1.28125 L 6.140625 0 L 1.09375 0 L 1.09375 -8.375 L 2.515625 -8.375 Z M 2.515625 -1.28125 "/></g></g></g><g fill="#ffffff" fill-opacity="1"><g transform="translate(8.553835, 19.910671)"><g/></g></g><g fill="#ffffff" fill-opacity="1"><g transform="translate(13.138737, 19.910671)"><g><path d="M 7.078125 -7.109375 L 2.515625 -7.109375 L 2.515625 -4.84375 L 6.609375 -4.84375 L 6.609375 -3.578125 L 2.515625 -3.578125 L 2.515625 -1.265625 L 7.234375 -1.265625 L 7.234375 0 L 1.09375 0 L 1.09375 -8.375 L 7.078125 -8.375 Z M 7.078125 -7.109375 "/></g></g></g><g fill="#ffffff" fill-opacity="1"><g transform="translate(22.486489, 19.910671)"><g/></g></g><g clip-path="url(#d9d3a588a5)"><g fill="#ffffff" fill-opacity="1"><g transform="translate(27.071391, 19.910671)"><g><path d="M 4.828125 0 L 3.375 0 L 0.03125 -8.375 L 1.5625 -8.375 L 4.140625 -1.5625 L 6.75 -8.375 L 8.21875 -8.375 Z M 4.828125 0 "/></g></g></g></g></svg>